<svg xmlns="http://www.w3.org/2000/svg" viewBox="0 0 32 32">
  <rect width="32" height="32" rx="8" fill="#25D366"/>
  <path d="M16 6C10.477 6 6 10.477 6 16c0 1.89.52 3.66 1.43 5.17L6 26l4.95-1.41A9.94 9.94 0 0016 26c5.523 0 10-4.477 10-10S21.523 6 16 6z" fill="white"/>
  <path d="M13 12.5c-.28 0-.73.1-1.11.52-.38.42-1.46 1.43-1.46 3.48s1.5 4.04 1.71 4.32c.21.28 2.9 4.64 7.13 6.32 3.52 1.39 4.24.99 5 .93.76-.06 2.45-.99 2.8-1.95.34-.96.34-1.78.24-1.95-.1-.17-.38-.27-.8-.48-.42-.21-2.45-1.2-2.83-1.34-.38-.14-.65-.21-.93.21-.28.42-1.07 1.34-1.31 1.62-.24.28-.48.31-.9.1-.42-.21-1.77-.65-3.37-2.08-1.25-1.11-2.09-2.48-2.33-2.9-.24-.42-.03-.65.18-.86.19-.19.42-.48.63-.72.21-.24.28-.42.42-.69.14-.28.07-.52-.03-.72-.1-.21-.9-2.28-1.27-3.1-.32-.73-.66-.75-.93-.76H13z" fill="#25D366"/>
</svg>
